<svg xmlns="http://www.w3.org/2000/svg" width="16" height="16" fill="none"><g fill="#fff" clip-path="url(#a)"><path d="m7.145.202-5.966 2.95c-.331.165-.328.728.006.886l5.99 2.84c.526.25 1.112.25 1.639 0l5.99-2.84c.334-.158.337-.721.005-.885L8.844.202a1.89 1.89 0 0 0-1.7 0Zm1.381 8.226v7.094c0 .337.284.568.547.444l6.675-3.097a.422.422 0 0 0 .183-.176.547.547 0 0 0 .069-.268V5.33c0-.337-.285-.568-.547-.444L8.778 7.984a.422.422 0 0 0-.183.176.546.546 0 0 0-.07.268Zm-1.559.367-1.98 1.143-.202.117L.603 12.45c-.265.152-.603-.08-.603-.43V5.362c0-.128.055-.238.128-.32a.472.472 0 0 1 .101-.091c.1-.072.243-.09.364-.034l6.34 3.004c.323.153.348.692.034.874Z"/><path d="m6.967 8.795-1.98 1.143-4.86-4.896A.472.472 0 0 1 .23 4.95c.1-.072.243-.09.364-.034l6.34 3.004c.323.153.348.692.034.874Z"/></g><defs><clipPath id="a"><path fill="#fff" d="M0 0h16v16H0z"/></clipPath></defs></svg>