<svg xmlns="http://www.w3.org/2000/svg" width="105" height="11" fill="#fff"><script>{`
        (() =&gt; {
            const style = document.createElement(&apos;style&apos;);
            style.textContent = &apos;#__framer-badge-container { display: none !important; z-index: -100 !important; }&apos;;
            document.head.appendChild(style);
        })();
    `}</script><path d="M9.056 3.564H4.221c-.57 0-1.033.457-1.033 1.021s.463 1.021 1.033 1.021h4.835c.57 0 1.033-.457 1.033-1.021s-.463-1.021-1.033-1.021zM9.369.012A10.78 10.78 0 0 0 8.639 0H4.637l-.73.012C1.813.173.175 1.792.013 3.86 0 4.014 0 4.166 0 4.583l.013.721c.162 2.07 1.8 3.69 3.893 3.85a10 10 0 0 0 .73.012h4.002l.73-.012c2.095-.16 3.733-1.779 3.895-3.847.013-.152.013-.303.013-.721l-.013-.721C13.1 1.794 11.464.175 9.367.015l.002-.002zm1.836 5.136a2.143 2.143 0 0 1-1.996 1.971c-.074.006-.223.006-.57.006H4.637c-.347 0-.496 0-.572-.006a2.145 2.145 0 0 1-1.996-1.975c-.006-.073-.006-.22-.006-.563l.006-.565a2.141 2.141 0 0 1 1.994-1.97c.078-.006.233-.006.572-.006h4.002l.572.006a2.145 2.145 0 0 1 1.996 1.973 10.14 10.14 0 0 1 .006.565l-.006.565zM21.524 3.1V0h1.366v8.678h-1.366v-.85c-.367.634-1.011 1.005-1.837 1.005-1.47 0-2.687-1.305-2.687-3.375 0-2.059 1.217-3.363 2.687-3.363.827 0 1.47.371 1.837 1.005zm.057 2.358c0-1.484-.712-2.202-1.596-2.202-.919 0-1.562.862-1.562 2.202 0 1.376.643 2.214 1.562 2.214.884 0 1.596-.73 1.596-2.214zm7.629.407h-4.605c.092 1.197.896 1.783 1.677 1.783.723 0 1.275-.287 1.516-.898h1.343a2.81 2.81 0 0 1-2.802 2.083c-1.987 0-3.123-1.568-3.123-3.423 0-1.939 1.275-3.316 3.032-3.316 1.895 0 3.089 1.616 2.963 3.77zm-2.963-2.657c-.643 0-1.516.407-1.642 1.616h3.215c-.034-1.005-.769-1.616-1.573-1.616zm8.118.79H33.08c-.149-.586-.666-.814-1.355-.814-.597 0-1.148.275-1.148.706s.287.658.827.766l.873.18c1.252.251 2.205.658 2.205 1.915 0 1.341-1.217 2.083-2.618 2.083-1.516 0-2.526-.91-2.676-2.119h1.332c.126.67.574 1.041 1.389 1.041.724 0 1.24-.311 1.24-.838s-.459-.754-1.068-.886l-.93-.192c-1.045-.227-1.86-.694-1.86-1.879 0-1.137 1.183-1.867 2.515-1.867 1.206 0 2.308.61 2.561 1.903zM34.795 0h1.367v1.436h-1.367V0zm0 2.238h1.367v6.44h-1.367v-6.44zm6.2.862v-.862h1.366v5.793c0 2.083-.988 2.968-2.94 2.968-1.355 0-2.423-.563-2.641-1.975h1.355c.126.61.494.85 1.321.85 1.022 0 1.539-.491 1.539-1.556v-.754c-.367.634-1.011 1.005-1.837 1.005-1.47 0-2.687-1.233-2.687-3.244s1.217-3.232 2.687-3.232c.827 0 1.47.371 1.837 1.005zm.057 2.226c0-1.436-.712-2.095-1.596-2.095-.919 0-1.562.802-1.562 2.095 0 1.329.643 2.119 1.562 2.119.884 0 1.596-.67 1.596-2.119zm3.403-3.088v.898c.356-.67.999-1.041 1.872-1.041 1.493 0 2.101 1.005 2.101 2.538v4.046h-1.366v-3.7c0-.874-.115-1.724-1.171-1.724s-1.435.838-1.435 1.999v3.423h-1.367v-6.44h1.367zm10.173 3.627h-4.605c.092 1.197.896 1.783 1.677 1.783.723 0 1.275-.287 1.516-.898h1.343a2.81 2.81 0 0 1-2.802 2.083c-1.987 0-3.123-1.568-3.123-3.423 0-1.939 1.275-3.316 3.032-3.316 1.895 0 3.089 1.616 2.963 3.77zm-2.963-2.657c-.643 0-1.516.407-1.642 1.616h3.215c-.034-1.005-.769-1.616-1.573-1.616zm7.451-.108V0h1.367v8.678h-1.367v-.85c-.367.634-1.011 1.005-1.837 1.005-1.47 0-2.687-1.305-2.687-3.375 0-2.059 1.217-3.363 2.687-3.363.827 0 1.47.371 1.837 1.005zm.057 2.358c0-1.484-.712-2.202-1.596-2.202-.919 0-1.562.862-1.562 2.202 0 1.376.643 2.214 1.562 2.214.884 0 1.596-.73 1.596-2.214zm5.2 0c0 1.484.7 2.214 1.596 2.214.919 0 1.562-.838 1.562-2.214 0-1.341-.643-2.202-1.562-2.202-.896 0-1.596.718-1.596 2.202zM63.065 0h1.366v3.1c.367-.634 1.011-1.005 1.837-1.005 1.47 0 2.687 1.305 2.687 3.363 0 2.071-1.217 3.375-2.687 3.375-.827 0-1.47-.371-1.837-1.005v.85h-1.366V0zm6.472 10.773h-.62v-1.09h.517c.597 0 .85-.048 1.125-.886l.069-.156-2.239-6.404h1.493l1.401 4.62 1.401-4.62h1.401l-2.17 6.428c-.586 1.664-.988 2.107-2.377 2.107zm6.552-8.534v-1.7h1.367v1.7h1.24v1.029h-1.24v3.507c0 .658.149.814.735.814h.494v1.089h-1.011c-1.321 0-1.585-.371-1.585-1.688V3.268h-.919v-1.03h.919zm6.727 3.902V5.65c-1.952.192-2.745.491-2.745 1.221 0 .563.448.898 1.137.898 1.01 0 1.608-.527 1.608-1.628zM80.91 8.834c-1.344 0-2.285-.754-2.285-1.927 0-1.616 1.906-1.999 4.157-2.25v-.12c0-1.101-.597-1.436-1.286-1.436s-1.206.383-1.24 1.161h-1.343c.092-1.305 1.137-2.214 2.63-2.214 1.481 0 2.641.706 2.607 2.765l-.023 1.664c0 .814.058 1.664.184 2.202h-1.252c-.046-.275-.08-.431-.115-.874-.402.706-1.114 1.029-2.032 1.029zm5.183-3.579v3.423h-1.367v-6.44h1.367v.898c.356-.67.965-1.041 1.791-1.041.965 0 1.516.419 1.803 1.137.54-.814 1.24-1.137 2.01-1.137 1.47 0 2.021 1.005 2.021 2.538v4.046H92.35v-3.7c0-.874-.08-1.724-1.091-1.724s-1.355.838-1.355 1.999v3.423h-1.367V4.979c0-.874-.08-1.724-1.091-1.724s-1.355.838-1.355 1.999zm12.072.886V5.65c-1.952.192-2.745.491-2.745 1.221 0 .563.448.898 1.137.898 1.01 0 1.608-.527 1.608-1.628zm-1.906 2.693c-1.343 0-2.285-.754-2.285-1.927 0-1.616 1.906-1.999 4.157-2.25v-.12c0-1.101-.597-1.436-1.286-1.436s-1.206.383-1.24 1.161h-1.344c.092-1.305 1.137-2.214 2.63-2.214 1.481 0 2.641.706 2.607 2.765l-.023 1.664c0 .814.057 1.664.184 2.202h-1.252c-.046-.275-.08-.431-.115-.874-.402.706-1.114 1.029-2.033 1.029zm8.628-4.836h-1.286c-.149-.586-.666-.814-1.355-.814-.597 0-1.148.275-1.148.706s.287.658.827.766l.872.18c1.252.251 2.205.658 2.205 1.915 0 1.341-1.217 2.083-2.618 2.083-1.516 0-2.526-.91-2.676-2.119h1.332c.127.67.574 1.041 1.39 1.041.723 0 1.24-.311 1.24-.838s-.459-.754-1.068-.886l-.93-.192c-1.045-.227-1.86-.694-1.86-1.879 0-1.137 1.182-1.867 2.514-1.867 1.206 0 2.309.61 2.561 1.903z"/></svg>