<svg xmlns="http://www.w3.org/2000/svg" width="12" height="12" fill="none"><path fill="#fff" fill-rule="evenodd" d="M6 0C2.685 0 0 2.753 0 6.152c0 2.722 1.718 5.021 4.103 5.836.3.054.412-.13.412-.292 0-.146-.007-.63-.007-1.146-1.508.285-1.898-.377-2.018-.723-.068-.176-.36-.722-.615-.868-.21-.116-.51-.4-.008-.408.473-.008.81.446.923.63.54.931 1.402.67 1.747.508.053-.4.21-.669.383-.823-1.335-.154-2.73-.684-2.73-3.037 0-.67.232-1.223.615-1.653-.06-.154-.27-.785.06-1.63 0 0 .502-.162 1.65.63.48-.139.99-.208 1.5-.208s1.02.07 1.5.208c1.147-.8 1.65-.63 1.65-.63.33.845.12 1.476.06 1.63.383.43.615.976.615 1.653 0 2.36-1.402 2.883-2.737 3.037.217.192.405.562.405 1.138 0 .823-.008 1.484-.008 1.692 0 .162.112.354.412.292a6.023 6.023 0 0 0 2.96-2.244A6.268 6.268 0 0 0 12 6.152C12 2.752 9.315 0 6 0Z" clip-rule="evenodd"/></svg>