<svg xmlns="http://www.w3.org/2000/svg" width="284" height="63" fill="none"><g fill="#FA6F45" clip-path="url(#a)"><path d="M18.567 14.7c4.709 0 8.745 1.761 12.041 5.216 3.296 3.455 4.978 7.655 4.978 12.6 0 4.945-1.682 9.213-4.978 12.668s-7.332 5.148-12.041 5.148c-5.584 0-9.822-2.235-12.714-6.706V63H0V15.58h5.853v5.827c2.892-4.471 7.13-6.707 12.714-6.707Zm-.74 29.942c3.363 0 6.188-1.152 8.476-3.455 2.287-2.37 3.43-5.216 3.43-8.67 0-3.456-1.143-6.3-3.43-8.604-2.288-2.371-5.113-3.523-8.476-3.523-3.431 0-6.257 1.152-8.544 3.523-2.287 2.303-3.43 5.148-3.43 8.603s1.143 6.3 3.43 8.671c2.287 2.303 5.113 3.455 8.544 3.455Zm26.519 4.81h-5.852V0h5.852v49.452Zm32.703-28.045V15.58H82.9v33.87h-5.85v-5.825c-2.893 4.47-7.13 6.706-12.714 6.706-4.71 0-8.745-1.693-12.042-5.148-3.296-3.455-4.978-7.723-4.978-12.668 0-4.945 1.682-9.145 4.978-12.6 3.297-3.455 7.333-5.216 12.042-5.216 5.583 0 9.821 2.236 12.714 6.707ZM65.075 44.642c3.43 0 6.256-1.152 8.543-3.455 2.287-2.37 3.43-5.216 3.43-8.67 0-3.456-1.143-6.3-3.43-8.604-2.287-2.371-5.112-3.523-8.543-3.523-3.364 0-6.19 1.152-8.476 3.523-2.287 2.303-3.431 5.148-3.431 8.603s1.144 6.3 3.43 8.671c2.288 2.303 5.113 3.455 8.477 3.455Zm41.43-29.062v5.691h-8.947v18.358c0 5.216 2.959 4.81 8.947 4.539v5.284c-10.226 1.355-14.8-1.423-14.8-9.823V21.271h-6.66v-5.69h6.66V7.858l5.853-1.761v9.484h8.947Zm43.631 15.92h-40.699v-5.69h40.699v5.69Zm22.69-30.348v5.69c-5.92-.474-8.88 2.1-8.88 7.723v1.016h8.88v5.69h-8.88v28.18h-5.852v-28.18h-5.382v-5.69h5.382v-1.016c0-9.146 5.247-14.023 14.732-13.413Zm28.986 44.032c-3.43 3.455-7.668 5.148-12.579 5.148-4.911 0-9.149-1.693-12.58-5.148-3.43-3.455-5.112-7.655-5.112-12.668 0-5.013 1.682-9.213 5.112-12.668 3.431-3.454 7.669-5.148 12.58-5.148 4.911 0 9.149 1.694 12.579 5.148 3.431 3.455 5.18 7.655 5.18 12.668 0 5.013-1.749 9.213-5.18 12.668Zm-12.579-.61c3.363 0 6.189-1.151 8.476-3.455 2.287-2.303 3.431-5.148 3.431-8.603s-1.144-6.3-3.431-8.603-5.113-3.455-8.476-3.455c-3.296 0-6.122 1.152-8.409 3.455-2.287 2.303-3.431 5.148-3.431 8.603s1.144 6.3 3.431 8.603c2.287 2.304 5.113 3.455 8.409 3.455Zm26.435-28.994v5.691c1.951-4.2 5.449-6.3 10.495-6.3v6.165c-2.893-.136-5.315.61-7.4 2.303-2.086 1.693-3.095 4.335-3.095 8.061v17.952h-5.852V15.58h5.852Zm48.728-.88c7.535 0 12.647 5.284 12.647 13.684v21.068h-5.852V28.587c0-5.216-2.893-8.264-7.4-8.264-5.045 0-8.274 3.319-8.274 10.296v18.833h-5.853V28.587c0-5.216-2.758-8.264-7.131-8.264-4.91 0-8.61 3.454-8.61 10.296v18.833h-5.853V14.97h5.853v5.148c2.287-3.59 5.651-5.419 10.023-5.419 4.507 0 7.804 1.897 9.889 5.758 2.354-3.861 5.852-5.758 10.561-5.758Zm12.007 1.253v-4.56h-1.582v-.578h3.789v.577h-1.581v4.56h-.626Zm2.654 0v-5.137h.723l1.738 4.329h.021l1.738-4.33H284v5.138h-.584v-3.97h-.021l-1.602 3.97h-.529l-1.602-3.97h-.021v3.97h-.584Z"/></g><defs><clipPath id="a"><path fill="#fff" d="M0 0h284v63H0z"/></clipPath></defs></svg>