<svg xmlns="http://www.w3.org/2000/svg" width="16" height="16" fill="none"><path fill="#fff" d="M4.24 9.718a1.364 1.364 0 1 1-2.73 0c0-.755.61-1.366 1.366-1.366H4.24v1.366Zm.683 0a1.364 1.364 0 1 1 2.73 0v3.416a1.364 1.364 0 1 1-2.73 0V9.718Zm1.365-5.486c-.755 0-1.365-.61-1.365-1.366a1.364 1.364 0 1 1 2.73 0v1.366H6.289Zm0 .694c.755 0 1.366.61 1.366 1.366 0 .756-.61 1.366-1.366 1.366H2.865c-.755 0-1.365-.61-1.365-1.366 0-.755.61-1.366 1.365-1.366h3.423Zm5.472 1.366a1.364 1.364 0 1 1 2.73 0c0 .756-.61 1.366-1.366 1.366H11.76V6.292Zm-.683 0a1.364 1.364 0 1 1-2.73 0V2.866a1.364 1.364 0 1 1 2.73 0v3.426Zm-1.365 5.476c.755 0 1.365.61 1.365 1.366a1.364 1.364 0 1 1-2.73 0v-1.366h1.365Zm0-.684c-.755 0-1.366-.61-1.366-1.366 0-.755.61-1.366 1.366-1.366h3.423c.755 0 1.365.61 1.365 1.366 0 .756-.61 1.367-1.365 1.367H9.712Z"/></svg>